<svg xmlns="http://www.w3.org/2000/svg" width="1100" height="300" viewBox="0 0 1100 300">
  <rect width="100%" height="100%" fill="#0d1117"/>
  <text x="550" y="30" font-family="Arial" font-size="18" font-weight="bold" fill="#e6edf3" text-anchor="middle">Validation Flow Overview</text>
  <line x1="100" y1="45" x2="1000" y2="45" stroke="#30363d" stroke-width="2"/>
  
  <rect x="40" y="80" width="180" height="70" rx="8" fill="#1c3a5e" stroke="#58a6ff" stroke-width="3"/>
  <text x="130" y="115" font-family="Arial" font-size="14" font-weight="bold" fill="#e6edf3" text-anchor="middle">Plugin Load</text>
  <text x="130" y="138" font-family="Arial" font-size="12" fill="#8b949e" text-anchor="middle">(Startup)</text>
  
  <rect x="280" y="80" width="180" height="70" rx="8" fill="#1c3a5e" stroke="#58a6ff" stroke-width="3"/>
  <text x="370" y="115" font-family="Arial" font-size="14" font-weight="bold" fill="#e6edf3" text-anchor="middle">Skript Event</text>
  <text x="370" y="138" font-family="Arial" font-size="12" fill="#8b949e" text-anchor="middle">(Trigger)</text>
  
  <rect x="520" y="80" width="180" height="70" rx="8" fill="#1c3a5e" stroke="#58a6ff" stroke-width="3"/>
  <text x="610" y="115" font-family="Arial" font-size="14" font-weight="bold" fill="#e6edf3" text-anchor="middle">Load Schema</text>
  <text x="610" y="138" font-family="Arial" font-size="12" fill="#8b949e" text-anchor="middle">and Data</text>
  
  <rect x="760" y="80" width="180" height="70" rx="8" fill="#1a4a2e" stroke="#3fb950" stroke-width="3"/>
  <text x="850" y="115" font-family="Arial" font-size="14" font-weight="bold" fill="#e6edf3" text-anchor="middle">Run Validation</text>
  <text x="850" y="138" font-family="Arial" font-size="12" fill="#8b949e" text-anchor="middle">Engine</text>
  
  <rect x="760" y="180" width="180" height="60" rx="8" fill="#4a1a1a" stroke="#f85149" stroke-width="3"/>
  <text x="850" y="208" font-family="Arial" font-size="14" font-weight="bold" fill="#e6edf3" text-anchor="middle">Return Result</text>
  <text x="850" y="228" font-family="Arial" font-size="12" fill="#8b949e" text-anchor="middle">and Errors</text>
  
  <line x1="220" y1="115" x2="280" y2="115" stroke="#58a6ff" stroke-width="3"/>
  <polygon points="280,110 295,115 280,120" fill="#58a6ff"/>
  
  <line x1="460" y1="115" x2="520" y2="115" stroke="#58a6ff" stroke-width="3"/>
  <polygon points="520,110 535,115 520,120" fill="#58a6ff"/>
  
  <line x1="700" y1="115" x2="760" y2="115" stroke="#58a6ff" stroke-width="3"/>
  <polygon points="760,110 775,115 760,120" fill="#58a6ff"/>
  
  <line x1="850" y1="150" x2="850" y2="180" stroke="#f85149" stroke-width="3"/>
  <polygon points="845,180 850,195 855,180" fill="#f85149"/>
  
  <text x="250" y="105" font-family="Arial" font-size="11" fill="#8b949e" text-anchor="middle">triggers</text>
  <text x="490" y="105" font-family="Arial" font-size="11" fill="#8b949e" text-anchor="middle">loads</text>
  <text x="730" y="105" font-family="Arial" font-size="11" fill="#8b949e" text-anchor="middle">processes</text>
  
  <rect x="40" y="250" width="14" height="14" rx="2" fill="#1c3a5e" stroke="#58a6ff" stroke-width="2"/>
  <text x="62" y="262" font-family="Arial" font-size="11" fill="#8b949e">Input/Trigger</text>
  
  <rect x="180" y="250" width="14" height="14" rx="2" fill="#1a4a2e" stroke="#3fb950" stroke-width="2"/>
  <text x="202" y="262" font-family="Arial" font-size="11" fill="#8b949e">Processing</text>
  
  <rect x="320" y="250" width="14" height="14" rx="2" fill="#4a1a1a" stroke="#f85149" stroke-width="2"/>
  <text x="342" y="262" font-family="Arial" font-size="11" fill="#8b949e">Output</text>
</svg>
